<svg xmlns="http://www.w3.org/2000/svg" viewBox="0 0 21 20" width="21" height="20">
	<defs>
		<filter id="flt1"> <feColorMatrix in="SourceGraphic" type="matrix" values="0 0 0 0 0.6   0 0 0 0 0.6   0 0 0 0 0.6   0 0 0 1 0" /> </filter>
	</defs>
	<style>
		tspan { white-space:pre }
		.shp0 { filter: url(#flt1);fill: #999999 } 
	</style>
	<path id="rss" class="shp0" d="M3.34,14.18c-1.6,0 -2.9,1.3 -2.9,2.89c0,1.6 1.3,2.89 2.9,2.89c1.6,0 2.9,-1.29 2.9,-2.89c0,-1.6 -1.3,-2.89 -2.9,-2.89zM0.59,6.69c-0.05,0 -0.1,0.01 -0.15,0.01v3.69c0.05,0 0.1,-0.01 0.15,-0.01c5.1,0 9.38,4.3 9.38,9.38c0,0.08 -0.01,0.15 -0.01,0.23h3.7c0,-0.08 0.01,-0.15 0.01,-0.23c0,-7.12 -5.94,-13.07 -13.09,-13.07zM0.59,0.03c-0.05,0 -0.1,0 -0.15,0v3.72c0.05,0 0.1,0 0.15,0c8.8,0 16.07,7.24 16.07,16.02c0,0.08 0,0.15 -0.01,0.23h3.65c0,-0.08 0.01,-0.15 0.01,-0.23c0,-10.81 -8.87,-19.74 -19.72,-19.74z" />
</svg>