<svg xmlns="http://www.w3.org/2000/svg" viewBox="0 0 21 21" width="21" height="21">
	<defs>
		<filter id="flt1"> <feColorMatrix in="SourceGraphic" type="matrix" values="0 0 0 0 0.6   0 0 0 0 0.6   0 0 0 0 0.6   0 0 0 1 0" /> </filter>
	</defs>
	<style>
		tspan { white-space:pre }
		.shp0 { filter: url(#flt1);fill: #999999 } 
	</style>
	<path id="skype" class="shp0" d="M18.94 12.35C19 11.91 19.05 11.47 19.05 11.02C19.05 6.1 15.08 2.34 10.18 2.34C9.72 2.34 9.28 2.39 8.84 2.45C7.95 1.69 6.81 1 5.55 1C2.76 1 0.5 3.27 0.5 6.08C0.5 7.23 0.88 8.28 1.51 9.13C1.38 9.74 1.31 10.37 1.31 11.02C1.31 15.94 5.28 20.16 10.18 20.16C10.81 20.16 11.42 20.09 12.02 19.97C12.9 20.75 14.06 20.99 15.33 20.99C18.13 20.99 20.39 18.71 20.39 15.91C20.39 14.52 19.84 13.26 18.94 12.35ZM14.32 15.11C13.97 15.6 13.46 16 12.79 16.28C12.11 16.56 11.31 16.7 10.39 16.7C9.28 16.7 8.37 16.51 7.65 16.12C7.14 15.85 6.73 15.47 6.41 15.01C6.09 14.55 5.93 14.1 5.93 13.66C5.93 13.4 6.03 13.19 6.22 13.01C6.41 12.82 6.65 12.73 6.95 12.73C7.19 12.73 7.39 12.8 7.56 12.95C7.72 13.09 7.87 13.3 7.98 13.57C8.13 13.9 8.28 14.18 8.45 14.4C8.61 14.62 8.84 14.8 9.14 14.95C9.45 15.09 9.84 15.16 10.33 15.16C11 15.16 11.55 15.02 11.97 14.73C12.39 14.44 12.6 14.08 12.6 13.64C12.6 13.3 12.49 13.02 12.26 12.81C12.03 12.59 11.74 12.43 11.38 12.32C11.02 12.2 10.54 12.08 9.94 11.96C9.13 11.78 8.46 11.58 7.92 11.35C7.37 11.11 6.94 10.8 6.63 10.39C6.31 9.99 6.15 9.49 6.15 8.89C6.15 8.32 6.32 7.82 6.65 7.37C6.99 6.93 7.47 6.59 8.11 6.35C8.75 6.11 9.5 6 10.36 6C11.05 6 11.64 6.07 12.15 6.23C12.65 6.39 13.06 6.6 13.4 6.86C13.73 7.12 13.97 7.4 14.12 7.68C14.28 7.97 14.35 8.25 14.35 8.52C14.35 8.77 14.26 9 14.07 9.2C13.88 9.4 13.64 9.5 13.35 9.5C13.09 9.5 12.89 9.44 12.76 9.32C12.62 9.2 12.48 9 12.32 8.73C12.11 8.34 11.87 8.03 11.58 7.82C11.3 7.6 10.84 7.49 10.21 7.49C9.62 7.49 9.15 7.6 8.79 7.84C8.43 8.08 8.25 8.37 8.25 8.7C8.25 8.91 8.31 9.09 8.43 9.24C8.56 9.39 8.72 9.52 8.94 9.62C9.15 9.73 9.37 9.82 9.59 9.88C9.81 9.94 10.17 10.03 10.68 10.15C11.31 10.29 11.88 10.44 12.39 10.6C12.9 10.76 13.34 10.97 13.7 11.2C14.06 11.44 14.34 11.73 14.54 12.09C14.74 12.45 14.84 12.9 14.84 13.42C14.84 14.04 14.67 14.61 14.32 15.11Z" />
</svg>