<svg xmlns="http://www.w3.org/2000/svg" viewBox="0 0 27 24" width="27" height="24">
	<style>
		tspan { white-space:pre }
		.shp0 { fill: #e74b3b } 
	</style>
	<path id="twitter" class="shp0" d="M23.54,3.06c-0.34,0.19 -1.34,0.56 -2.28,0.65c0.6,-0.33 1.49,-1.39 1.71,-2.24c-0.58,0.37 -1.9,0.91 -2.56,0.91c0,0 0,0 0,0c-0.75,-0.78 -1.8,-1.41 -2.97,-1.41c-2.27,0 -3.92,1.98 -3.92,4.25c0,0.32 0.04,0.62 0.1,0.92h0c-3.07,-0.08 -6.62,-1.79 -8.64,-4.44c-1.24,2.16 -0.17,4.73 1.25,5.6c-0.48,0.04 -1.37,-0.06 -1.79,-0.47c-0.03,1.44 0.66,3.34 3.17,4.03c-0.48,0.26 -1.34,0.19 -1.71,0.13c0.13,1.21 1.82,2.8 3.67,2.8c-0.66,0.76 -3.14,2.15 -5.92,1.71c1.89,1.15 4.09,1.82 6.42,1.82c6.62,0 12.05,-5.39 11.77,-12.04c0,-0.01 0,-0.01 0,-0.02c0,-0.02 0,-0.03 0,-0.05c0,-0.02 0,-0.04 0,-0.06c0.6,-0.41 1.13,-1.15 1.7,-2.11z" />
</svg>