<svg xmlns="http://www.w3.org/2000/svg" viewBox="0 0 21 19" width="21" height="19">
	<defs>
		<filter id="flt1"> <feColorMatrix in="SourceGraphic" type="matrix" values="0 0 0 0 0.6   0 0 0 0 0.6   0 0 0 0 0.6   0 0 0 1 0" /> </filter>
	</defs>
	<style>
		tspan { white-space:pre }
		.shp0 { filter: url(#flt1);fill: #999999 } 
	</style>
	<path id="vimeo" class="shp0" d="M1.2,6.72c0,0 1.29,-1.01 1.75,-0.94c1.18,0.31 2.19,5.07 2.7,6.88c0.51,1.81 1.14,5.48 3.67,5.48c4.09,0 10.86,-10.07 10.86,-13.36c0,-2.16 -0.61,-4.1 -3.14,-4.1c-2.53,0 -4.51,1.81 -5.36,4.86c0.93,-0.44 2.63,-0.67 2.76,0.86c0.13,1.53 -2.21,5.48 -3.23,5.48c-1.03,0 -1.79,-4.47 -2.05,-6.52c-0.27,-2.05 -0.74,-3.88 -2.68,-3.88c-1.94,0 -4.43,2.6 -6.18,3.98z" />
</svg>